# Blender v2.81 (sub 15) OBJ File: 'Warrior.blend'
# www.blender.org
mtllib Warrior.mtl
o Body_Cube.002
v 1.158935 -2.015064 0.720684
v 0.201008 2.018557 0.159387
v 1.158935 -2.015064 -0.720684
v 0.201008 2.018557 -0.255275
v 0.464952 0.402442 -0.356436
v 0.464952 0.402442 0.356436
v 0.844867 1.887227 -0.291693
v 0.844867 1.887227 0.363401
v 0.619611 1.454677 -0.408867
v 0.619611 1.454677 0.568757
v 1.030877 -2.015064 -0.720684
v 0.166644 -2.015064 -0.720684
v 0.523954 1.101308 0.360673
v 0.521198 1.101308 -0.278819
v 0.166644 -2.015064 0.720684
v 1.030877 -2.015064 0.720684
v 0.827491 1.404210 0.166516
v 0.827491 1.404210 -0.241562
v 1.060501 1.649658 0.159660
v 0.348284 -1.596280 -0.300614
v 1.060501 1.649658 -0.234706
v 0.348284 -1.596280 0.300614
v 0.880598 -1.596280 -0.300614
v 0.880598 -1.596280 0.300614
v -1.158935 -2.015064 0.720684
v -0.201008 2.018557 0.159387
v -1.158935 -2.015064 -0.720684
v -0.201008 2.018557 -0.255275
v -0.464952 0.402442 -0.356436
v -0.464952 0.402442 0.356436
v -0.844867 1.887227 -0.291693
v -0.844867 1.887227 0.363401
v -0.619611 1.454677 -0.408867
v -0.619611 1.454677 0.568757
v -1.030877 -2.015064 -0.720684
v -0.166644 -2.015064 -0.720684
v -0.523954 1.101308 0.360673
v -0.521198 1.101308 -0.278819
v -0.166644 -2.015064 0.720684
v -1.030877 -2.015064 0.720684
v -0.827491 1.404210 0.166516
v -0.827491 1.404210 -0.241562
v -1.060501 1.649658 0.159660
v -0.348284 -1.596280 -0.300614
v -1.060501 1.649658 -0.234706
v -0.348284 -1.596280 0.300614
v -0.880598 -1.596280 -0.300614
v -0.880598 -1.596280 0.300614
v 0.000000 1.983160 -0.255275
v 0.000000 1.983160 0.159387
v 0.000000 0.402442 0.403622
v 0.000000 0.402442 -0.356436
v 0.000000 1.797859 0.554844
v 0.000000 1.797859 -0.483136
v 0.000000 1.412803 -0.497050
v 0.000000 1.412803 0.670879
v 0.000000 1.007665 -0.376293
v 0.000000 1.007665 0.498457
v 0.000000 -2.015064 0.720684
v 0.000000 -2.015064 -0.720684
vt 0.603722 0.375000
vt 0.625000 0.375000
vt 0.625000 0.500000
vt 0.603722 0.500000
vt 0.625000 0.750000
vt 0.603722 0.750000
vt 0.578288 0.750000
vt 0.578288 0.750000
vt 0.603722 0.750000
vt 0.375000 0.750000
vt 0.515179 0.750000
vt 0.515179 0.875000
vt 0.375000 0.875000
vt 0.375000 0.850000
vt 0.375000 0.800000
vt 0.375000 0.500000
vt 0.515179 0.500000
vt 0.578288 0.500000
vt 0.578288 0.500000
vt 0.578288 0.375000
vt 0.603722 0.500000
vt 0.552982 0.375000
vt 0.552982 0.500000
vt 0.552982 0.750000
vt 0.275000 0.700000
vt 0.325000 0.700000
vt 0.325000 0.750000
vt 0.275000 0.750000
vt 0.515179 0.375000
vt 0.275000 0.550000
vt 0.250000 0.750000
vt 0.250000 0.500000
vt 0.275000 0.500000
vt 0.325000 0.500000
vt 0.325000 0.550000
vt 0.552982 0.875000
vt 0.578288 0.875000
vt 0.603722 0.875000
vt 0.625000 0.875000
vt 0.375000 0.375000
vt 0.375000 0.450000
vt 0.375000 0.400000
vt 0.603722 0.500000
vt 0.625000 0.500000
vt 0.603722 0.750000
vt 0.625000 0.750000
vt 0.603722 0.750000
vt 0.578288 0.750000
vt 0.578288 0.750000
vt 0.375000 0.750000
vt 0.375000 0.800000
vt 0.375000 0.850000
vt 0.515179 0.750000
vt 0.375000 0.500000
vt 0.515179 0.500000
vt 0.578288 0.500000
vt 0.578288 0.500000
vt 0.603722 0.500000
vt 0.552982 0.500000
vt 0.552982 0.750000
vt 0.275000 0.700000
vt 0.275000 0.750000
vt 0.325000 0.750000
vt 0.325000 0.700000
vt 0.275000 0.550000
vt 0.275000 0.500000
vt 0.325000 0.550000
vt 0.325000 0.500000
vt 0.375000 0.400000
vt 0.375000 0.450000
vn 0.0481 0.6959 -0.7165
vn 0.1999 0.9798 0.0000
vn 0.7167 -0.2852 0.6364
vn 0.0287 0.1435 0.9892
vn 0.9612 0.2759 0.0000
vn -0.2359 -0.9718 0.0000
vn 0.1771 0.1080 -0.9782
vn 0.7405 0.6721 0.0000
vn 0.1897 -0.3303 -0.9246
vn 0.9643 -0.2646 -0.0016
vn 0.0000 -0.7082 -0.7060
vn 0.0945 0.0400 -0.9947
vn 0.9966 -0.0821 -0.0020
vn 0.7088 -0.7054 0.0000
vn 0.0000 -0.7082 0.7060
vn 0.4065 -0.1088 -0.9072
vn -0.7845 -0.6201 0.0000
vn 0.1908 -0.0829 0.9781
vn 0.2342 -0.4594 0.8568
vn 0.1581 0.3232 0.9330
vn -0.0166 0.8767 0.4808
vn 0.0000 0.1490 -0.9888
vn -0.0481 0.6959 -0.7165
vn -0.1999 0.9798 0.0000
vn -0.7167 -0.2852 0.6364
vn -0.0287 0.1435 0.9892
vn -0.9612 0.2759 0.0000
vn 0.2359 -0.9718 0.0000
vn -0.1771 0.1080 -0.9782
vn -0.7405 0.6721 0.0000
vn -0.1897 -0.3303 -0.9246
vn -0.9643 -0.2646 -0.0016
vn -0.0945 0.0400 -0.9947
vn -0.9966 -0.0821 -0.0020
vn -0.7088 -0.7054 -0.0000
vn -0.4065 -0.1088 -0.9072
vn 0.7845 -0.6201 -0.0000
vn -0.1908 -0.0829 0.9781
vn -0.2342 -0.4594 0.8568
vn -0.1581 0.3232 0.9330
vn 0.0166 0.8767 0.4808
usemtl None
s off
f 54/1/1 49/2/1 4/3/1 7/4/1
f 7/4/2 4/3/2 2/5/2 8/6/2
f 8/6/3 10/7/3 17/8/3 19/9/3
f 1/10/4 6/11/4 51/12/4 59/13/4 15/14/4 16/15/4
f 3/16/5 5/17/5 6/11/5 1/10/5
f 10/7/6 9/18/6 18/19/6 17/8/6
f 55/20/7 54/1/7 7/4/7 9/18/7
f 7/4/8 8/6/8 19/9/8 21/21/8
f 57/22/9 55/20/9 9/18/9 14/23/9
f 14/23/10 9/18/10 10/7/10 13/24/10
f 22/25/11 24/26/11 16/27/11 15/28/11
f 52/29/12 57/22/12 14/23/12 5/17/12
f 5/17/13 14/23/13 13/24/13 6/11/13
f 20/30/14 22/25/14 15/28/14 59/31/14 60/32/14 12/33/14
f 12/33/15 11/34/15 23/35/15 20/30/15
f 9/18/16 7/4/16 21/21/16 18/19/16
f 3/16/17 1/10/17 16/27/17 24/26/17 23/35/17 11/34/17
f 6/11/18 13/24/18 58/36/18 51/12/18
f 13/24/19 10/7/19 56/37/19 58/36/19
f 10/7/20 8/6/20 53/38/20 56/37/20
f 8/6/21 2/5/21 50/39/21 53/38/21
f 60/40/22 52/29/22 5/17/22 3/16/22 11/41/22 12/42/22
f 54/1/23 31/43/23 28/44/23 49/2/23
f 31/43/24 32/45/24 26/46/24 28/44/24
f 32/45/25 43/47/25 41/48/25 34/49/25
f 25/50/26 40/51/26 39/52/26 59/13/26 51/12/26 30/53/26
f 27/54/27 25/50/27 30/53/27 29/55/27
f 34/49/28 41/48/28 42/56/28 33/57/28
f 55/20/29 33/57/29 31/43/29 54/1/29
f 31/43/30 45/58/30 43/47/30 32/45/30
f 57/22/31 38/59/31 33/57/31 55/20/31
f 38/59/32 37/60/32 34/49/32 33/57/32
f 46/61/11 39/62/11 40/63/11 48/64/11
f 52/29/33 29/55/33 38/59/33 57/22/33
f 29/55/34 30/53/34 37/60/34 38/59/34
f 44/65/35 36/66/35 60/32/35 59/31/35 39/62/35 46/61/35
f 36/66/15 44/65/15 47/67/15 35/68/15
f 33/57/36 42/56/36 45/58/36 31/43/36
f 27/54/37 35/68/37 47/67/37 48/64/37 40/63/37 25/50/37
f 30/53/38 51/12/38 58/36/38 37/60/38
f 37/60/39 58/36/39 56/37/39 34/49/39
f 34/49/40 56/37/40 53/38/40 32/45/40
f 32/45/41 53/38/41 50/39/41 26/46/41
f 60/40/22 36/69/22 35/70/22 27/54/22 29/55/22 52/29/22
o LeftHand_Cube.003
v 1.602371 1.000519 -0.035937
v 0.827491 1.404210 0.166516
v 0.827491 1.404210 -0.241562
v 1.602371 1.000519 -0.357407
v 1.369361 0.755072 -0.031627
v 1.369361 0.755072 -0.361717
v 1.060501 1.649658 0.159660
v 1.060501 1.649658 -0.234706
v 1.930609 0.181148 -0.018721
v 1.930609 0.181148 0.186532
v 1.752964 0.058124 0.189283
v 1.752964 0.058124 -0.021473
vt 0.603722 0.750000
vt 0.578288 0.750000
vt 0.578288 0.750000
vt 0.603722 0.750000
vt 0.603722 0.500000
vt 0.603722 0.500000
vt 0.578288 0.500000
vt 0.578288 0.500000
vt 0.603722 0.500000
vt 0.578288 0.500000
vt 0.603722 0.750000
vt 0.578288 0.750000
vn 0.1778 -0.1467 0.9731
vn 0.7677 0.6408 0.0000
vn -0.7677 -0.6408 0.0000
vn -0.0912 0.1091 -0.9898
vn 0.2711 -0.2845 -0.9196
vn 0.5693 -0.8221 0.0000
vn 0.9283 0.3719 0.0000
vn -0.8761 -0.4822 0.0000
vn -0.1664 0.2040 0.9647
usemtl None
s off
f 67/71/42 62/72/42 65/73/42 61/74/42
f 68/75/43 67/71/43 61/74/43 64/76/43
f 62/72/44 63/77/44 66/78/44 65/73/44
f 63/77/45 68/75/45 64/76/45 66/78/45
f 66/78/46 64/76/46 69/79/46 72/80/46
f 72/80/47 69/79/47 70/81/47 71/82/47
f 64/76/48 61/74/48 70/81/48 69/79/48
f 65/73/49 66/78/49 72/80/49 71/82/49
f 61/74/50 65/73/50 71/82/50 70/81/50
o RightLeg_Cube.004
v -0.348284 -1.596280 -0.300614
v -0.348284 -1.596280 0.300614
v -0.880598 -1.596280 -0.300614
v -0.880598 -1.596280 0.300614
v -0.892198 -2.669043 0.541771
v -0.584477 -2.669043 0.541771
v -0.586920 -2.955934 0.638711
v -0.917547 -2.955934 0.638711
v -0.637962 -2.955934 -0.274719
v -0.568219 -2.955934 0.111780
v -0.937059 -2.955934 -0.274719
v -0.951770 -2.955935 0.178302
v -0.918987 -2.590307 -0.259136
v -0.554247 -2.590307 -0.259136
v -0.913701 -2.590307 0.087924
v -0.560274 -2.590307 0.087924
vt 0.275000 0.550000
vt 0.275000 0.550000
vt 0.325000 0.550000
vt 0.325000 0.550000
vt 0.325000 0.700000
vt 0.325000 0.700000
vt 0.325000 0.700000
vt 0.325000 0.700000
vt 0.275000 0.700000
vt 0.275000 0.700000
vt 0.325000 0.700000
vt 0.325000 0.550000
vt 0.275000 0.550000
vt 0.275000 0.700000
vt 0.275000 0.700000
vt 0.275000 0.700000
vn 0.0000 -0.0417 -0.9991
vn -0.9907 0.1165 0.0704
vn 0.9785 -0.2062 0.0062
vn 0.0000 -0.2092 0.9779
vn 0.0000 -1.0000 -0.0000
vn 0.9990 -0.0079 0.0431
vn 0.9885 -0.1249 -0.0859
vn -0.9994 0.0355 0.0056
vn -0.9971 0.0753 -0.0117
vn 0.0000 0.3201 0.9474
vn 0.0000 0.0426 -0.9991
vn 0.0000 0.9853 0.1709
usemtl None
s off
f 73/83/51 86/84/51 85/85/51 75/86/51
f 84/87/52 80/88/52 77/89/52 87/90/52
f 74/91/53 88/92/53 86/84/53 73/83/53
f 76/93/54 87/90/54 88/92/54 74/91/54
f 83/94/55 81/95/55 82/96/55 84/87/55
f 88/92/56 78/97/56 79/98/56 82/96/56
f 88/92/57 82/96/57 81/95/57 86/84/57
f 75/86/58 85/85/58 87/90/58 76/93/58
f 85/85/59 83/94/59 84/87/59 87/90/59
f 77/89/60 80/88/60 79/98/60 78/97/60
f 86/84/61 81/95/61 83/94/61 85/85/61
f 87/90/62 77/89/62 78/97/62 88/92/62
f 82/96/55 79/98/55 80/88/55 84/87/55
o Head_Cube.005
v 0.201008 2.018557 0.159387
v 0.201008 2.018557 -0.255275
v 0.286221 3.062242 -0.178681
v 0.369268 2.806732 -0.301382
v 0.358517 2.384668 -0.261734
v 0.286221 3.062242 0.080962
v 0.360342 2.737864 0.102711
v 0.358517 2.353653 0.031576
v 0.225695 2.313570 0.296482
v 0.189547 3.025466 0.314225
v 0.226607 2.676077 0.381112
v -0.201008 2.018557 0.159387
v -0.201008 2.018557 -0.255275
v 0.000000 1.983160 -0.255275
v 0.000000 1.983160 0.159387
v 0.000000 3.062242 -0.364970
v 0.000000 2.822546 -0.457661
v 0.000000 2.338123 -0.417167
v -0.286221 3.062242 -0.178681
v -0.369268 2.806732 -0.301382
v -0.358517 2.384668 -0.261734
v -0.286221 3.062242 0.080962
v -0.360342 2.737864 0.102711
v -0.358517 2.353653 0.031576
v 0.000000 3.004957 0.408935
v 0.000000 2.624832 0.520960
v 0.000000 2.273487 0.422835
v 0.000000 3.192841 -0.003484
v -0.225695 2.313570 0.296482
v -0.189547 3.025466 0.314225
v -0.226607 2.676077 0.381112
vt 0.625000 0.875000
vt 0.625000 0.750000
vt 0.625000 0.750000
vt 0.625000 0.812500
vt 0.625000 0.875000
vt 0.666667 0.500000
vt 0.666667 0.750000
vt 0.500000 0.750000
vt 0.500000 0.500000
vt 0.666667 0.250000
vt 0.500000 0.250000
vt 0.583333 1.000000
vt 0.333333 0.500000
vt 0.333333 0.250000
vt 0.416667 1.000000
vt 0.333333 0.750000
vt 0.250000 0.750000
vt 0.250000 0.500000
vt 0.250000 0.250000
vt 0.245827 0.987482
vt 0.625000 0.500000
vt 0.625000 0.375000
vt 0.625000 0.375000
vt 0.625000 0.500000
vt 0.166667 0.500000
vt 0.166667 0.250000
vt 0.166667 0.750000
vt 0.625000 0.812500
vt 0.625000 0.750000
vt 0.625000 0.750000
vt 0.500000 0.500000
vt 0.500000 0.750000
vt 0.500000 0.250000
vt 0.333333 0.250000
vt 0.333333 0.500000
vt 0.333333 0.750000
vt 0.250000 0.500000
vt 0.250000 0.750000
vt 0.250000 0.250000
vt 0.625000 0.500000
vt 0.625000 0.500000
vn 0.5675 -0.4673 0.6779
vn 0.4283 0.4199 -0.8002
vn 0.3953 -0.0855 -0.9146
vn 0.2159 0.9183 -0.3318
vn 0.9998 -0.0160 0.0105
vn 0.4151 0.9098 0.0000
vn 0.9661 0.2550 0.0394
vn 0.8779 0.2020 0.4342
vn 0.9007 -0.0919 0.4247
vn 0.3294 0.9021 0.2787
vn 0.2947 -0.2778 -0.9143
vn 0.9107 -0.4126 -0.0181
vn 0.5271 -0.2114 0.8231
vn 0.4463 0.2345 0.8636
vn 0.1080 0.9047 0.4121
vn -0.5675 -0.4673 0.6779
vn -0.4283 0.4199 -0.8002
vn -0.3953 -0.0855 -0.9146
vn -0.2159 0.9183 -0.3318
vn -0.9998 -0.0160 0.0105
vn -0.4151 0.9098 0.0000
vn -0.9661 0.2550 0.0394
vn -0.8779 0.2020 0.4342
vn -0.9007 -0.0919 0.4247
vn -0.3294 0.9021 0.2787
vn -0.2947 -0.2778 -0.9143
vn -0.9107 -0.4126 -0.0181
vn -0.5271 -0.2114 0.8231
vn -0.4463 0.2345 0.8636
vn -0.1080 0.9047 0.4121
usemtl None
s off
f 103/99/63 89/100/63 96/101/63 97/102/63 115/103/63
f 105/104/64 104/105/64 91/106/64 92/107/64
f 106/108/65 105/104/65 92/107/65 93/109/65
f 104/105/66 116/110/66 91/106/66
f 93/109/67 92/107/67 95/111/67 96/112/67
f 91/106/68 116/113/68 94/114/68
f 92/107/69 91/106/69 94/114/69 95/111/69
f 95/111/70 94/114/70 98/115/70 99/116/70
f 96/112/71 95/111/71 99/116/71 97/117/71
f 94/114/72 116/118/72 98/115/72
f 90/119/73 102/120/73 106/121/73 93/122/73
f 89/100/74 90/119/74 93/122/74 96/101/74
f 97/117/75 99/116/75 114/123/75 115/124/75
f 99/116/76 98/115/76 113/125/76 114/123/76
f 98/115/77 116/118/77 113/125/77
f 103/99/78 115/103/78 117/126/78 112/127/78 100/128/78
f 105/104/79 108/129/79 107/130/79 104/105/79
f 106/108/80 109/131/80 108/129/80 105/104/80
f 104/105/81 107/130/81 116/110/81
f 109/131/82 112/132/82 111/133/82 108/129/82
f 107/130/83 110/134/83 116/113/83
f 108/129/84 111/133/84 110/134/84 107/130/84
f 111/133/85 119/135/85 118/136/85 110/134/85
f 112/132/86 117/137/86 119/135/86 111/133/86
f 110/134/87 118/136/87 116/118/87
f 101/138/88 109/139/88 106/121/88 102/120/88
f 100/128/89 112/127/89 109/139/89 101/138/89
f 117/137/90 115/124/90 114/123/90 119/135/90
f 119/135/91 114/123/91 113/125/91 118/136/91
f 118/136/92 113/125/92 116/118/92
o RightHand_Cube.006
v -1.602371 1.000519 -0.035937
v -0.827491 1.404210 0.166516
v -0.827491 1.404210 -0.241562
v -1.602371 1.000519 -0.357407
v -1.369361 0.755072 -0.031627
v -1.369361 0.755072 -0.361717
v -1.060501 1.649658 0.159660
v -1.060501 1.649658 -0.234706
v -1.930609 0.181148 -0.018721
v -1.930609 0.181148 0.186532
v -1.752964 0.058124 0.189283
v -1.752964 0.058124 -0.021473
vt 0.603722 0.750000
vt 0.603722 0.750000
vt 0.578288 0.750000
vt 0.578288 0.750000
vt 0.603722 0.500000
vt 0.603722 0.500000
vt 0.578288 0.500000
vt 0.578288 0.500000
vt 0.578288 0.500000
vt 0.603722 0.500000
vt 0.578288 0.750000
vt 0.603722 0.750000
vn -0.1778 -0.1467 0.9731
vn -0.7677 0.6408 0.0000
vn 0.7677 -0.6408 0.0000
vn 0.0912 0.1091 -0.9898
vn -0.2711 -0.2845 -0.9196
vn -0.5693 -0.8221 0.0000
vn -0.9283 0.3719 0.0000
vn 0.8761 -0.4822 0.0000
vn 0.1664 0.2040 0.9647
usemtl None
s off
f 126/140/93 120/141/93 124/142/93 121/143/93
f 127/144/94 123/145/94 120/141/94 126/140/94
f 121/143/95 124/142/95 125/146/95 122/147/95
f 122/147/96 125/146/96 123/145/96 127/144/96
f 125/146/97 131/148/97 128/149/97 123/145/97
f 131/148/98 130/150/98 129/151/98 128/149/98
f 123/145/99 128/149/99 129/151/99 120/141/99
f 124/142/100 130/150/100 131/148/100 125/146/100
f 120/141/101 129/151/101 130/150/101 124/142/101
o LeftLeg_Cube.007
v 0.348284 -1.596280 -0.300614
v 0.348284 -1.596280 0.300614
v 0.880598 -1.596280 -0.300614
v 0.880598 -1.596280 0.300614
v 0.892198 -2.669043 0.541771
v 0.584477 -2.669043 0.541771
v 0.586920 -2.955934 0.638711
v 0.917547 -2.955934 0.638711
v 0.637962 -2.955934 -0.274719
v 0.568219 -2.955934 0.111780
v 0.937059 -2.955934 -0.274719
v 0.951770 -2.955935 0.178302
v 0.918987 -2.590307 -0.259136
v 0.554247 -2.590307 -0.259136
v 0.913701 -2.590307 0.087924
v 0.560274 -2.590307 0.087924
vt 0.275000 0.550000
vt 0.325000 0.550000
vt 0.325000 0.550000
vt 0.275000 0.550000
vt 0.325000 0.700000
vt 0.325000 0.700000
vt 0.325000 0.700000
vt 0.325000 0.700000
vt 0.275000 0.700000
vt 0.275000 0.700000
vt 0.325000 0.700000
vt 0.325000 0.550000
vt 0.275000 0.700000
vt 0.275000 0.550000
vt 0.275000 0.700000
vt 0.275000 0.700000
vn 0.0000 -0.0417 -0.9991
vn 0.9907 0.1165 0.0704
vn -0.9785 -0.2062 0.0062
vn 0.0000 -0.2092 0.9779
vn -0.0000 -1.0000 -0.0000
vn -0.9990 -0.0079 0.0431
vn -0.9885 -0.1249 -0.0859
vn 0.9994 0.0355 0.0056
vn 0.9971 0.0753 -0.0117
vn 0.0000 0.3201 0.9474
vn 0.0000 0.0426 -0.9991
vn 0.0000 0.9853 0.1709
usemtl None
s off
f 132/152/102 134/153/102 144/154/102 145/155/102
f 143/156/103 146/157/103 136/158/103 139/159/103
f 133/160/104 132/152/104 145/155/104 147/161/104
f 135/162/105 133/160/105 147/161/105 146/157/105
f 142/163/106 143/156/106 141/164/106 140/165/106
f 147/161/107 141/164/107 138/166/107 137/167/107
f 147/161/108 145/155/108 140/165/108 141/164/108
f 134/153/109 135/162/109 146/157/109 144/154/109
f 144/154/110 146/157/110 143/156/110 142/163/110
f 136/158/111 137/167/111 138/166/111 139/159/111
f 145/155/112 144/154/112 142/163/112 140/165/112
f 146/157/113 147/161/113 137/167/113 136/158/113
f 141/164/106 143/156/106 139/159/106 138/166/106
o Shield_Circle
v -3.516574 -0.934585 0.000000
v -2.716156 -0.014271 0.000000
v -2.518468 1.380563 -0.000000
v -3.011307 1.789496 -0.000000
v -4.021842 1.789496 -0.000000
v -4.514680 1.380563 -0.000000
v -4.316993 -0.014270 0.000000
v -3.516574 -0.346347 0.115730
v -3.026978 0.216586 0.115730
v -2.906058 1.197475 0.115730
v -3.146089 1.447609 0.115730
v -3.887059 1.447609 0.115730
v -4.127090 1.197475 0.115730
v -4.006170 0.216586 0.115730
v -3.516574 -0.924609 0.000689
v -2.726040 -0.009969 0.001379
v -2.528936 1.377502 0.001162
v -3.015318 1.780560 0.001137
v -4.017830 1.780560 0.001137
v -4.504212 1.377502 0.001162
v -4.307109 -0.009969 0.001379
v -3.516574 -0.344834 0.105846
v -3.028906 0.217247 0.105906
v -2.908106 1.197127 0.105909
v -3.146818 1.445944 0.105892
v -3.886330 1.445944 0.105892
v -4.125042 1.197128 0.105909
v -4.004242 0.217248 0.105906
vt 0.000000 0.000000
vt 0.000000 0.000000
vt 0.000000 0.000000
vt 0.000000 0.000000
vt 0.000000 0.000000
vt 0.000000 0.000000
vt 0.000000 0.000000
vt 0.000000 0.000000
vt 0.000000 0.000000
vt 0.000000 0.000000
vt 0.000000 0.000000
vt 0.000000 0.000000
vt 0.000000 0.000000
vt 0.000000 0.000000
vt 0.000000 0.000000
vt 0.000000 0.000000
vt 0.000000 0.000000
vt 0.000000 0.000000
vt 0.000000 0.000000
vt 0.000000 0.000000
vt 0.000000 0.000000
vt 0.000000 0.000000
vt 0.000000 0.000000
vt 0.000000 0.000000
vt 0.000000 0.000000
vt 0.000000 0.000000
vt 0.000000 0.000000
vt 0.000000 0.000000
vn -0.0000 -0.0000 -1.0000
vn -0.0000 0.0000 1.0000
vn -0.2167 -0.1885 0.9579
vn -0.1997 0.2221 0.9544
vn 0.1997 0.2221 0.9544
vn 0.2167 -0.1885 0.9579
vn -0.3117 -0.0418 0.9493
vn 0.0000 0.3206 0.9472
vn 0.3117 -0.0418 0.9492
vn 0.2014 0.1748 -0.9638
vn 0.1857 -0.2066 -0.9606
vn -0.1857 -0.2066 -0.9606
vn -0.2014 0.1748 -0.9638
vn 0.2907 0.0389 -0.9560
vn -0.0000 -0.2988 -0.9543
vn -0.2907 0.0389 -0.9560
usemtl None
s off
f 149/168/114 148/169/114 154/170/114 153/171/114 152/172/114 151/173/114 150/174/114
f 156/175/115 157/176/115 158/177/115 159/178/115 160/179/115 161/180/115 155/181/115
f 154/170/116 148/169/116 155/181/116 161/180/116
f 152/172/117 153/171/117 160/179/117 159/178/117
f 150/174/118 151/173/118 158/177/118 157/176/118
f 148/169/119 149/168/119 156/175/119 155/181/119
f 153/171/120 154/170/120 161/180/120 160/179/120
f 151/173/121 152/172/121 159/178/121 158/177/121
f 149/168/122 150/174/122 157/176/122 156/175/122
f 163/182/115 164/183/115 165/184/115 166/185/115 167/186/115 168/187/115 162/188/115
f 170/189/114 169/190/114 175/191/114 174/192/114 173/193/114 172/194/114 171/195/114
f 168/187/123 175/191/123 169/190/123 162/188/123
f 166/185/124 173/193/124 174/192/124 167/186/124
f 164/183/125 171/195/125 172/194/125 165/184/125
f 162/188/126 169/190/126 170/189/126 163/182/126
f 167/186/127 174/192/127 175/191/127 168/187/127
f 165/184/128 172/194/128 173/193/128 166/185/128
f 163/182/129 170/189/129 171/195/129 164/183/129
o Sword_Sphere
v 3.066199 -0.306341 -0.057717
v 3.144727 0.307802 0.000000
v 3.116183 -0.306341 -0.028859
v 3.116183 -0.306341 0.028859
v 3.066199 0.307802 0.042005
v 3.066199 -0.306341 0.057717
v 3.066199 -0.320200 0.000000
v 2.987671 0.307802 -0.000000
v 3.016214 -0.306341 0.028859
v 3.016214 -0.306341 -0.028859
v 3.066199 0.307802 -0.042005
v 3.163699 0.284149 -0.056292
v 3.163699 0.252615 -0.056292
v 3.163699 0.284149 0.056292
v 3.163699 0.252615 0.056292
v 3.066199 0.284149 0.083171
v 3.066199 0.252615 0.083171
v 2.968699 0.284149 0.056292
v 2.968699 0.252615 0.056292
v 2.968699 0.284149 -0.056292
v 2.968699 0.252615 -0.056292
v 3.066199 0.284149 -0.083171
v 3.066199 0.252615 -0.083171
v 3.445445 0.320996 -0.017085
v 3.445445 0.296232 -0.017085
v 3.445445 0.320996 0.017085
v 3.445445 0.296232 0.017085
v 2.686952 0.320996 0.017085
v 2.686952 0.296232 0.017085
v 2.686952 0.320996 -0.017085
v 2.686952 0.296232 -0.017085
v 3.116183 0.208362 -0.028859
v 3.116183 0.208362 0.028859
v 3.066199 0.208362 0.057717
v 3.016214 0.208362 0.028859
v 3.016214 0.208362 -0.028859
v 3.066199 0.208362 -0.057717
v 3.239326 2.721658 0.000000
v 3.066199 2.721658 0.037280
v 3.066199 3.019397 0.000000
v 2.893072 2.721658 -0.000000
v 3.066199 2.721658 -0.037280
vt 0.583333 0.000000
vt 0.666667 0.333333
vt 0.500000 0.333333
vt 0.666667 0.623538
vt 0.666667 0.666667
vt 0.500000 0.666667
vt 0.500000 0.623538
vt 0.166667 0.666667
vt 0.333333 0.666667
vt 0.333333 0.666667
vt 0.166667 0.666667
vt 0.416667 0.000000
vt 0.333333 0.333333
vt 0.333333 0.623538
vt 0.000000 0.666667
vt 0.000000 0.666667
vt 0.250000 0.000000
vt 0.166667 0.333333
vt 0.166667 0.623538
vt 0.833333 0.666667
vt 0.833333 0.666667
vt 0.666667 0.666667
vt 0.083333 0.000000
vt 0.000000 0.333333
vt 0.000000 0.623538
vt 0.500000 0.666667
vt 0.916667 0.000000
vt 1.000000 0.333333
vt 0.833333 0.333333
vt 1.000000 0.623538
vt 0.833333 0.623538
vt 0.750000 0.000000
vt 0.833333 0.503678
vt 0.833333 0.512427
vt 0.666667 0.512427
vt 0.666667 0.503678
vt 1.000000 0.503678
vt 1.000000 0.512427
vt 0.833333 0.512427
vt 0.833333 0.623538
vt 0.166667 0.503678
vt 0.166667 0.512427
vt 0.000000 0.512427
vt 0.000000 0.503678
vt 0.333333 0.503678
vt 0.333333 0.512427
vt 0.500000 0.503678
vt 0.500000 0.512427
vt 0.500000 0.512427
vt 0.333333 0.512427
vt 1.000000 0.512427
vt 1.000000 0.623538
vt 0.500000 0.623538
vt 0.333333 0.623538
vt 0.000000 0.623538
vt 0.000000 0.512427
vt 0.583333 1.000000
vt 0.250000 1.000000
vt 0.083333 1.000000
vt 0.750000 1.000000
vn 0.1336 -0.9636 -0.2314
vn 0.1589 0.9000 -0.4059
vn 0.3005 -0.0050 0.9538
vn 0.2672 -0.9636 0.0000
vn 0.7801 0.6257 0.0000
vn -0.3005 -0.0050 0.9538
vn 0.1336 -0.9636 0.2314
vn 0.1589 0.9000 0.4059
vn -0.3005 -0.0050 -0.9538
vn -0.1336 -0.9636 0.2314
vn -0.1589 0.9000 0.4059
vn 0.3005 -0.0050 -0.9538
vn -0.2672 -0.9636 0.0000
vn -0.7801 0.6257 0.0000
vn -0.1336 -0.9636 -0.2314
vn -0.1589 0.9000 -0.4059
vn -0.2830 -0.5994 -0.7488
vn -0.2658 -0.0000 -0.9640
vn -0.6815 -0.7318 0.0000
vn -0.1378 0.0000 -0.9905
vn -0.2830 -0.5994 0.7488
vn -0.2658 0.0000 0.9640
vn 0.2830 -0.5994 0.7488
vn 0.2658 0.0000 0.9640
vn 0.6815 -0.7318 0.0000
vn 0.1530 -0.9882 0.0000
vn 0.2830 -0.5994 -0.7488
vn 0.2658 0.0000 -0.9640
vn -1.0000 0.0000 0.0000
vn 1.0000 0.0000 0.0000
vn -0.1378 0.0000 0.9905
vn -0.1530 -0.9882 0.0000
vn 0.1378 0.0000 0.9905
vn 0.1378 0.0000 -0.9905
vn -0.1297 0.9916 0.0000
vn 0.1297 0.9916 0.0000
vn 0.5000 0.0000 -0.8660
vn 0.5000 -0.0000 0.8660
vn -0.5000 -0.0000 0.8660
vn -0.5000 0.0000 -0.8660
vn 0.2089 0.1215 -0.9704
vn 0.2089 0.1215 0.9704
vn -0.2089 0.1215 0.9704
vn -0.2089 0.1215 -0.9704
usemtl None
s off
f 182/196/130 176/197/130 178/198/130
f 197/199/131 186/200/131 177/201/131 187/202/131
f 180/203/132 177/204/132 213/205/132 214/206/132
f 182/207/133 178/198/133 179/208/133
f 187/202/134 177/204/134 189/209/134
f 183/210/135 180/203/135 214/206/135 216/211/135
f 182/212/136 179/208/136 181/213/136
f 189/209/137 177/204/137 180/203/137 191/214/137
f 186/200/138 183/215/138 216/216/138 217/217/138
f 182/218/139 181/213/139 184/219/139
f 191/214/140 180/203/140 183/210/140 193/220/140
f 177/201/141 186/200/141 217/217/141 213/221/141
f 182/222/142 184/223/142 185/224/142
f 193/225/143 183/215/143 195/226/143
f 182/227/144 185/224/144 176/197/144
f 195/226/145 183/215/145 186/200/145 197/199/145
f 211/228/146 196/229/146 198/230/146 212/231/146
f 196/229/147 195/226/147 197/199/147 198/230/147
f 210/232/148 194/233/148 196/229/148 211/228/148
f 195/226/149 196/229/149 206/234/149 205/235/149
f 209/236/150 192/237/150 194/238/150 210/239/150
f 192/237/151 191/214/151 193/220/151 194/238/151
f 208/240/152 190/241/152 192/237/152 209/236/152
f 190/241/153 189/209/153 191/214/153 192/237/153
f 207/242/154 188/243/154 190/241/154 208/240/154
f 190/241/155 188/243/155 200/244/155 202/245/155
f 212/231/156 198/230/156 188/243/156 207/242/156
f 198/230/157 197/199/157 187/202/157 188/243/157
f 204/246/158 203/247/158 205/235/158 206/234/158
f 200/244/159 199/248/159 201/249/159 202/245/159
f 194/238/160 193/220/160 203/250/160 204/251/160
f 196/229/161 194/233/161 204/246/161 206/234/161
f 189/209/162 190/241/162 202/245/162 201/249/162
f 188/243/163 187/202/163 199/248/163 200/244/163
f 187/202/164 189/209/164 201/249/164 199/248/164
f 193/225/165 195/226/165 205/235/165 203/247/165
f 176/197/166 212/231/166 207/242/166 178/198/166
f 178/198/159 207/242/159 208/240/159 179/208/159
f 179/208/167 208/240/167 209/236/167 181/213/167
f 181/213/168 209/236/168 210/239/168 184/219/168
f 184/223/158 210/232/158 211/228/158 185/224/158
f 185/224/169 211/228/169 212/231/169 176/197/169
f 217/217/170 215/252/170 213/221/170
f 213/205/171 215/253/171 214/206/171
f 214/206/172 215/254/172 216/211/172
f 216/216/173 215/255/173 217/217/173
